<svg width="20" height="20" viewBox="0 0 24 24" fill="none" xmlns="http://www.w3.org/2000/svg">
  <circle cx="12" cy="12" r="9.5" stroke="#212121"/>
  <path fill-rule="evenodd" clip-rule="evenodd" d="M14 9C14 10.1046 13.1046 11 12 11C10.8954 11 10 10.1046 10 9C10 7.89543 10.8954 7 12 7C13.1046 7 14 7.89543 14 9ZM15 9C15 10.6569 13.6569 12 12 12C10.3431 12 9 10.6569 9 9C9 7.34315 10.3431 6 12 6C13.6569 6 15 7.34315 15 9ZM12 21C10.0025 21 8.15871 20.3503 6.66577 19.2497C7.66361 17.3184 9.67886 16 12 16C14.3211 16 16.3364 17.3184 17.3342 19.2497C15.8413 20.3503 13.9975 21 12 21ZM12 15C15.0036 15 17.5654 16.8918 18.5588 19.5488C16.8031 21.0756 14.5095 22 12 22C9.49053 22 7.19694 21.0756 5.44116 19.5488C6.4346 16.8918 8.99637 15 12 15Z" fill="#212121"/>
</svg>
