<svg width="24" height="24" viewBox="0 0 24 24" fill="none" xmlns="http://www.w3.org/2000/svg">
  <g clip-path="url(#clip0_1004:0)">
  <path d="M-6 -1.90735e-06H30V24H-6V-1.90735e-06Z" fill="#F68B27"/>
  <path d="M-6 8H30V16H-6V8Z" fill="white"/>
  <path d="M-6 16H30V24H-6V16Z" fill="#2B8A3B"/>
  <path d="M11.9999 8.8002C13.7672 8.8002 15.1999 10.2329 15.1999 12.0002C15.1999 13.7675 13.7672 15.2002 11.9999 15.2002C10.2326 15.2002 8.79993 13.7675 8.79993 12.0002C8.79993 10.2329 10.2326 8.8002 11.9999 8.8002Z" fill="#282D78"/>
  <path d="M12.0001 9.20005C13.5465 9.20005 14.8001 10.4536 14.8001 12C14.8001 13.5464 13.5465 14.8 12.0001 14.8C10.4537 14.8 9.20007 13.5464 9.20007 12C9.20007 10.4536 10.4537 9.20005 12.0001 9.20005Z" fill="white"/>
  <path d="M11.9999 11.4401C12.3092 11.4401 12.5599 11.6908 12.5599 12.0001C12.5599 12.3093 12.3092 12.5601 11.9999 12.5601C11.6907 12.5601 11.4399 12.3093 11.4399 12.0001C11.4399 11.6908 11.6907 11.4401 11.9999 11.4401Z" fill="#282D78"/>
  <path d="M14.7943 12.2266C14.871 12.2367 14.925 12.307 14.9149 12.3836C14.9047 12.4602 14.8344 12.5142 14.7578 12.5042C14.6811 12.494 14.6271 12.4238 14.6372 12.3471C14.6473 12.2704 14.7177 12.2164 14.7943 12.2266Z" fill="#282D78"/>
  <path d="M12 14.8L12.096 13.12L12 12.32L11.9041 13.12L12 14.8Z" fill="#282D78"/>
  <path d="M14.6404 12.9422C14.7118 12.9718 14.7457 13.0538 14.7161 13.1252C14.6866 13.1966 14.6047 13.2306 14.5332 13.201C14.4618 13.1714 14.4279 13.0894 14.4575 13.018C14.4871 12.9466 14.5689 12.9127 14.6404 12.9422Z" fill="#282D78"/>
  <path d="M11.2753 14.7046L11.8028 13.1067L11.9172 12.3091L11.6173 13.057L11.2753 14.7046Z" fill="#282D78"/>
  <path d="M14.3067 13.5936C14.368 13.6407 14.3796 13.7286 14.3326 13.7899C14.2854 13.8513 14.1976 13.8629 14.1362 13.8158C14.0749 13.7687 14.0633 13.6808 14.1104 13.6195C14.1574 13.5582 14.2454 13.5466 14.3067 13.5936Z" fill="#282D78"/>
  <path d="M10.5999 14.425L11.523 13.0182L11.8398 12.2773L11.3567 12.9221L10.5999 14.425Z" fill="#282D78"/>
  <path d="M13.8155 14.1361C13.8626 14.1974 13.8511 14.2853 13.7897 14.3324C13.7283 14.3794 13.6405 14.3679 13.5934 14.3066C13.5463 14.2452 13.5579 14.1573 13.6192 14.1102C13.6806 14.0632 13.7684 14.0748 13.8155 14.1361Z" fill="#282D78"/>
  <path d="M10.02 13.9797L11.2759 12.8597L11.7737 12.2261L11.1401 12.7239L10.02 13.9797Z" fill="#282D78"/>
  <path d="M13.2007 14.5334C13.2304 14.6048 13.1964 14.6868 13.125 14.7164C13.0536 14.746 12.9717 14.712 12.9421 14.6406C12.9125 14.5692 12.9464 14.4872 13.0179 14.4576C13.0893 14.428 13.1712 14.462 13.2007 14.5334Z" fill="#282D78"/>
  <path d="M9.57495 13.4001L11.0779 12.6433L11.7227 12.1602L10.9818 12.477L9.57495 13.4001Z" fill="#282D78"/>
  <path d="M12.5043 14.7577C12.5143 14.8344 12.4604 14.9047 12.3838 14.9148C12.3072 14.9249 12.2368 14.8709 12.2267 14.7942C12.2166 14.7176 12.2706 14.6473 12.3472 14.6372C12.4239 14.6271 12.4942 14.681 12.5043 14.7577Z" fill="#282D78"/>
  <path d="M9.29541 12.7249L10.943 12.3828L11.6909 12.0829L10.8933 12.1973L9.29541 12.7249Z" fill="#282D78"/>
  <path d="M11.7733 14.7942C11.7632 14.8709 11.6929 14.9249 11.6163 14.9148C11.5396 14.9047 11.4856 14.8344 11.4957 14.7577C11.5059 14.681 11.5761 14.6271 11.6528 14.6372C11.7295 14.6473 11.7835 14.7176 11.7733 14.7942Z" fill="#282D78"/>
  <path d="M9.20007 12L10.8801 12.0959L11.6801 12L10.8801 11.904L9.20007 12Z" fill="#282D78"/>
  <path d="M11.0577 14.6406C11.0281 14.712 10.9462 14.746 10.8748 14.7164C10.8033 14.6868 10.7694 14.6048 10.799 14.5334C10.8286 14.462 10.9105 14.428 10.982 14.4576C11.0534 14.4872 11.0873 14.5692 11.0577 14.6406Z" fill="#282D78"/>
  <path d="M9.29541 11.2751L10.8933 11.8027L11.6909 11.917L10.943 11.6172L9.29541 11.2751Z" fill="#282D78"/>
  <path d="M10.4065 14.3066C10.3594 14.3679 10.2716 14.3794 10.2102 14.3324C10.1488 14.2853 10.1372 14.1974 10.1844 14.1361C10.2314 14.0748 10.3193 14.0632 10.3806 14.1102C10.442 14.1573 10.4536 14.2452 10.4065 14.3066Z" fill="#282D78"/>
  <path d="M9.57495 10.6001L10.9818 11.5232L11.7227 11.8401L11.0779 11.357L9.57495 10.6001Z" fill="#282D78"/>
  <path d="M9.86392 13.8158C9.80256 13.8629 9.71464 13.8513 9.6676 13.7899C9.62056 13.7286 9.63208 13.6407 9.69344 13.5936C9.7548 13.5466 9.84272 13.5582 9.88976 13.6195C9.9368 13.6808 9.9252 13.7687 9.86392 13.8158Z" fill="#282D78"/>
  <path d="M10.02 10.0202L11.1401 11.2761L11.7737 11.7739L11.2759 11.1403L10.02 10.0202Z" fill="#282D78"/>
  <path d="M9.46659 13.201C9.39516 13.2306 9.31324 13.1966 9.28364 13.1252C9.25404 13.0538 9.28804 12.9718 9.3594 12.9422C9.43083 12.9127 9.51275 12.9466 9.54235 13.018C9.57195 13.0894 9.53803 13.1714 9.46659 13.201Z" fill="#282D78"/>
  <path d="M10.5999 9.57514L11.3567 11.0781L11.8398 11.7229L11.523 10.9821L10.5999 9.57514Z" fill="#282D78"/>
  <path d="M9.24232 12.5042C9.1656 12.5142 9.09527 12.4602 9.08519 12.3836C9.07511 12.307 9.12911 12.2367 9.20576 12.2266C9.2824 12.2164 9.35272 12.2704 9.3628 12.3471C9.37288 12.4238 9.31896 12.494 9.24232 12.5042Z" fill="#282D78"/>
  <path d="M11.2753 9.29547L11.6173 10.9431L11.9172 11.6909L11.8028 10.8934L11.2753 9.29547Z" fill="#282D78"/>
  <path d="M9.20576 11.7732C9.12911 11.7631 9.07511 11.6927 9.08519 11.6161C9.09527 11.5394 9.1656 11.4855 9.24232 11.4956C9.31896 11.5057 9.37288 11.576 9.3628 11.6526C9.35272 11.7293 9.2824 11.7833 9.20576 11.7732Z" fill="#282D78"/>
  <path d="M12 9.19993L11.9041 10.8799L12 11.6799L12.096 10.8799L12 9.19993Z" fill="#282D78"/>
  <path d="M9.3594 11.0579C9.28804 11.0283 9.25404 10.9464 9.28364 10.875C9.31324 10.8036 9.39516 10.7696 9.46659 10.7992C9.53803 10.8288 9.57195 10.9107 9.54235 10.9821C9.51275 11.0536 9.43083 11.0875 9.3594 11.0579Z" fill="#282D78"/>
  <path d="M12.7248 9.29547L12.1972 10.8934L12.0829 11.6909L12.3827 10.9431L12.7248 9.29547Z" fill="#282D78"/>
  <path d="M9.69344 10.4066C9.63208 10.3595 9.62056 10.2717 9.6676 10.2103C9.71472 10.149 9.80256 10.1374 9.86392 10.1845C9.9252 10.2316 9.9368 10.3194 9.88976 10.3808C9.84272 10.4421 9.7548 10.4537 9.69344 10.4066Z" fill="#282D78"/>
  <path d="M13.3999 9.57514L12.4768 10.9821L12.1599 11.7229L12.643 11.0781L13.3999 9.57514Z" fill="#282D78"/>
  <path d="M10.1844 9.86393C10.1372 9.80257 10.1488 9.71472 10.2102 9.6676C10.2716 9.62056 10.3594 9.63216 10.4065 9.69344C10.4536 9.7548 10.442 9.84273 10.3806 9.88977C10.3193 9.93681 10.2314 9.92529 10.1844 9.86393Z" fill="#282D78"/>
  <path d="M13.9799 10.0202L12.724 11.1403L12.2262 11.7739L12.8598 11.2761L13.9799 10.0202Z" fill="#282D78"/>
  <path d="M10.799 9.46676C10.7694 9.39532 10.8033 9.3134 10.8748 9.28388C10.9462 9.25428 11.0281 9.2882 11.0577 9.35956C11.0873 9.43108 11.0534 9.51292 10.982 9.54252C10.9105 9.57212 10.8286 9.5382 10.799 9.46676Z" fill="#282D78"/>
  <path d="M14.4249 10.6001L12.9219 11.357L12.2771 11.8401L13.0179 11.5232L14.4249 10.6001Z" fill="#282D78"/>
  <path d="M11.4957 9.24224C11.4856 9.1656 11.5396 9.09528 11.6163 9.08512C11.6929 9.07504 11.7632 9.12904 11.7733 9.20568C11.7835 9.28232 11.7295 9.35272 11.6528 9.3628C11.5761 9.37288 11.5059 9.31888 11.4957 9.24224Z" fill="#282D78"/>
  <path d="M14.7046 11.2751L13.057 11.6172L12.3092 11.917L13.1067 11.8027L14.7046 11.2751Z" fill="#282D78"/>
  <path d="M12.2267 9.20568C12.2368 9.12904 12.3072 9.07504 12.3838 9.08512C12.4604 9.09528 12.5143 9.1656 12.5043 9.24224C12.4942 9.31888 12.4239 9.37288 12.3472 9.3628C12.2706 9.35272 12.2166 9.28232 12.2267 9.20568Z" fill="#282D78"/>
  <path d="M14.8001 12L13.1201 11.904L12.3201 12L13.1201 12.0959L14.8001 12Z" fill="#282D78"/>
  <path d="M12.9421 9.35956C12.9717 9.2882 13.0536 9.25428 13.125 9.28388C13.1964 9.3134 13.2304 9.39532 13.2007 9.46676C13.1712 9.5382 13.0893 9.57212 13.0179 9.54252C12.9464 9.51292 12.9125 9.43108 12.9421 9.35956Z" fill="#282D78"/>
  <path d="M14.7046 12.7249L13.1067 12.1973L12.3092 12.0829L13.057 12.3828L14.7046 12.7249Z" fill="#282D78"/>
  <path d="M13.5934 9.69344C13.6405 9.63216 13.7283 9.62056 13.7897 9.6676C13.8511 9.71472 13.8626 9.80257 13.8155 9.86393C13.7684 9.92529 13.6806 9.93681 13.6192 9.88977C13.5579 9.84273 13.5463 9.7548 13.5934 9.69344Z" fill="#282D78"/>
  <path d="M14.4249 13.4001L13.0179 12.477L12.2771 12.1602L12.9219 12.6433L14.4249 13.4001Z" fill="#282D78"/>
  <path d="M14.1362 10.1845C14.1976 10.1374 14.2854 10.149 14.3326 10.2103C14.3796 10.2717 14.368 10.3595 14.3067 10.4066C14.2454 10.4537 14.1574 10.4421 14.1104 10.3808C14.0633 10.3194 14.0749 10.2316 14.1362 10.1845Z" fill="#282D78"/>
  <path d="M13.9799 13.9797L12.8598 12.7239L12.2262 12.2261L12.724 12.8597L13.9799 13.9797Z" fill="#282D78"/>
  <path d="M14.5332 10.7992C14.6047 10.7696 14.6866 10.8036 14.7161 10.875C14.7457 10.9464 14.7118 11.0283 14.6404 11.0579C14.5689 11.0875 14.4871 11.0536 14.4575 10.9821C14.4279 10.9107 14.4618 10.8288 14.5332 10.7992Z" fill="#282D78"/>
  <path d="M13.3999 14.425L12.643 12.9221L12.1599 12.2773L12.4768 13.0182L13.3999 14.425Z" fill="#282D78"/>
  <path d="M14.7578 11.4956C14.8344 11.4855 14.9047 11.5394 14.9149 11.6161C14.925 11.6927 14.871 11.7631 14.7943 11.7732C14.7177 11.7833 14.6473 11.7293 14.6372 11.6526C14.6271 11.576 14.6811 11.5057 14.7578 11.4956Z" fill="#282D78"/>
  <path d="M12.7248 14.7046L12.3827 13.057L12.0829 12.3091L12.1972 13.1067L12.7248 14.7046Z" fill="#282D78"/>
  </g>
  <defs>
  <clipPath id="clip0_1004:0">
  <rect width="24" height="24" rx="12" fill="white"/>
  </clipPath>
  </defs>
</svg>
